<!-- Generated by IcoMoon.io -->
<svg version="1.1" xmlns="http://www.w3.org/2000/svg" width="26" height="32" viewBox="0 0 26 32">
<title>Symbol</title>
<path fill="#d41443" d="M5.1 0c-0.913 0.023-1.729 0.424-2.298 1.054l-0.002 0.003c-0.513 0.565-0.827 1.319-0.827 2.147 0 0.939 0.405 1.784 1.049 2.37l0.003 0.002 11.537 10.425-11.537 10.425c-0.647 0.588-1.052 1.433-1.052 2.372 0 0.827 0.314 1.581 0.829 2.149l-0.002-0.003c0.588 0.649 1.434 1.055 2.375 1.055 0.826 0 1.579-0.313 2.146-0.827l-0.003 0.002 14.169-12.8c0.649-0.588 1.055-1.434 1.055-2.375s-0.406-1.787-1.052-2.373l-0.003-0.002-14.169-12.8c-0.565-0.512-1.319-0.826-2.146-0.826-0.026 0-0.051 0-0.077 0.001l0.004-0z"></path>
</svg>
